<?xml version="1.0" encoding="utf-8"?>
<!-- Generator: Adobe Illustrator 24.2.0, SVG Export Plug-In . SVG Version: 6.00 Build 0)  -->
<svg version="1.1" id="Layer_1" xmlns="http://www.w3.org/2000/svg" xmlns:xlink="http://www.w3.org/1999/xlink" x="0px" y="0px"
	 viewBox="0 0 492 301" style="enable-background:new 0 0 492 301;" xml:space="preserve">
<style type="text/css">
	.st0{fill:#C72127;}
	.st1{fill:#1C4179;}
	.st2{fill:#010101;}
</style>
<g>
	<path class="st0" d="M142.99,0.5L142.99,0.5c16.56,16.23,32.82,32.77,49.26,49.13C175.84,66.04,159.43,82.46,143,98.86
		C142.99,66.08,143.01,33.29,142.99,0.5z"/>
	<path class="st0" d="M0,251.7c3.45-0.5,6.94-0.49,10.42-0.5c4.23,12.17,8.27,24.39,12.48,36.56c2.99-10.42,6.1-20.82,9.07-31.25
		c0.63-1.82,1.12-4.24,3.25-4.86c3.09-0.73,6.32-0.35,9.47-0.39c-5.56,16.6-11.26,33.15-16.82,49.75c-3.35-0.02-6.7-0.01-10.06-0.02
		c-5.97-16.37-11.39-32.96-17.8-49.17L0,253.37V251.7z"/>
	<path class="st0" d="M49.25,256.42c-0.16-2.02,0.84-4.22,2.88-4.86c2.34-0.51,4.75-0.29,7.12-0.34c0,16.59,0,33.18,0,49.77
		c-3.32,0.01-6.64,0.01-9.96,0.03C49.21,286.15,49.26,271.28,49.25,256.42z"/>
	<path class="st0" d="M64,256.41c-0.17-2.06,0.92-4.34,3.03-4.9c2.31-0.42,4.66-0.25,6.99-0.29C80.54,262.06,86.91,273,93.5,283.8
		c0-10.85,0-21.7,0-32.55c3.33,0,6.66,0,10,0c0,16.58,0,33.16,0,49.75c-3.32,0-6.63,0-9.94,0.01c-6.59-10.86-13-21.83-19.56-32.7
		c0,10.89,0,21.79,0,32.69c-3.33,0-6.67,0-10,0C64.01,286.14,63.99,271.27,64,256.41z"/>
</g>
<g>
	<path class="st1" d="M245.99,103.36c32.65-32.54,65.08-65.31,97.9-97.66c0.21,32.63,0.05,65.26,0.13,97.9
		c-32.59,32.68-65.29,65.25-97.91,97.9c-32.59-32.68-65.34-65.21-97.83-98c16.13-16.48,32.58-32.65,48.84-49
		C213.4,70.8,229.7,87.07,245.99,103.36z"/>
</g>
<g>
	<path class="st2" d="M108.25,254.6c1.08-4.47,6.61-3.16,10-3.4c0.06,10.44-0.1,20.88,0.05,31.32c0.08,5.4,5.28,10.06,10.68,9.32
		c4.69-0.41,8.39-4.77,8.46-9.4c0.17-10.39-0.01-20.8,0.07-31.19c3.41,0,6.83,0,10.24,0c-0.07,10.67,0.14,21.35-0.08,32.02
		c-0.17,5.59-2.93,11.12-7.69,14.18c-8.61,5.6-21.67,4.58-28.23-3.72c-2.75-3.44-3.75-7.94-3.53-12.27
		C108.47,272.51,107.46,263.52,108.25,254.6z"/>
	<path class="st2" d="M152.27,256.41c-0.11-2.02,0.85-4.17,2.88-4.83c2.35-0.52,4.79-0.33,7.18-0.4
		c6.45,10.88,12.96,21.72,19.42,32.59c0-10.84-0.01-21.68,0-32.52c3.34,0,6.68,0,10.02,0.03c-0.04,16.57-0.01,33.14-0.01,49.72
		c-3.32,0-6.63,0-9.94,0c-6.38-10.72-12.7-21.48-19.24-32.11c-0.18,10.7-0.03,21.41-0.08,32.11c-3.43,0-6.85,0-10.27-0.03
		C152.3,286.12,152.18,271.26,152.27,256.41z"/>
	<path class="st2" d="M199.14,251.66c2.4-0.62,4.9-0.38,7.36-0.47c0.01,16.6,0,33.21,0,49.81c-3.34,0-6.67,0-10,0
		c0-14.83-0.01-29.65-0.01-44.48C196.34,254.57,197.18,252.37,199.14,251.66z"/>
	<path class="st2" d="M211.11,251.27c3.43-0.02,6.85-0.02,10.28-0.04c4.29,11.94,8.1,24.05,12.43,35.98
		c3.89-10.79,6.35-22.05,10.01-32.91c1.73-4.74,7.97-2.56,11.78-3.05c-5.53,16.61-11.17,33.18-16.83,49.74
		c-3.33,0.01-6.65,0.01-9.98,0.01C222.88,284.43,216.98,267.86,211.11,251.27z"/>
	<path class="st2" d="M260.24,257.47c-0.15-2.52,0.73-5.95,3.81-6.06c10.22-0.41,20.47-0.04,30.71-0.16c-0.01,3-0.01,6-0.01,9
		c-8.17,0.01-16.33,0-24.5,0.01c0,3.41,0,6.82,0,10.23c6.12,0.02,12.25-0.01,18.38,0.03c-0.33,2.87,0.46,7.26-3.06,8.4
		c-5.06,0.77-10.22,0.15-15.32,0.33c0,4.17,0,8.33,0,12.49c8.16,0.01,16.33,0,24.5,0.01c0,3.08,0,6.16,0.01,9.24
		c-11.49,0.04-22.99-0.01-34.49,0.03C260.22,286.5,260.26,271.99,260.24,257.47z"/>
	<g>
		<path class="st2" d="M299.54,256.56c-0.23-2.92,2.51-5.36,5.37-5.04c6.71-0.05,13.43-0.06,20.15,0.01
			c4.8,0.02,10.11,2.14,12.04,6.85c2.41,6.34,1.95,15.49-5.02,18.74c3.94,1.95,5.13,6.38,5.16,10.46c0.33,4.53-0.24,9.24,1.68,13.51
			c-3.68-0.12-7.36-0.09-11.03-0.12c-1.02-4.81-0.67-9.74-1.29-14.59c-0.25-2.18-1.85-4.3-4.17-4.42c-4.29-0.49-8.63-0.12-12.93-0.2
			c0,6.41,0,12.83,0,19.24c-3.34,0-6.67,0-10,0C299.54,286.19,299.42,271.37,299.54,256.56z M309.51,260.26
			c-0.01,4.24-0.01,8.48-0.01,12.73c4.81-0.14,9.67,0.43,14.44-0.36c5.63-1.09,5.85-11.17,0.04-12.13
			C319.18,259.93,314.33,260.37,309.51,260.26z"/>
	</g>
	<path class="st2" d="M348.06,255.54c4.08-3.51,9.75-4.12,14.92-4.21c5.31,0.04,11.26,1.07,14.84,5.38c2.42,2.68,2.96,6.37,3.49,9.8
		c-2.66-0.06-5.39,0.28-8-0.37c-2.6-1.7-3.85-5.19-7.07-6c-3.26-0.91-6.91-0.87-9.99,0.59c-2.27,1.01-3.79,4.32-2,6.39
		c1.45,1.75,3.61,2.68,5.71,3.41c6.09,1.95,12.67,2.66,18.37,5.72c5.84,3.6,5.9,12,2.9,17.49c-3.26,5.59-10.3,7.04-16.28,7.24
		c-6.05,0.09-12.87-0.55-17.38-5.04c-2.91-2.87-3.64-7.03-4.06-10.91c3.26-0.04,6.53-0.04,9.8-0.04c0.78,2.85,2.05,5.98,5.17,6.88
		c3.91,1.05,8.46,1.19,12.12-0.79c3.05-1.53,3.06-6.48-0.07-7.92c-6.34-2.85-13.6-3.08-19.74-6.47c-3.21-1.75-6.3-4.52-6.93-8.29
		C343.19,263.8,344.38,258.62,348.06,255.54z"/>
	<path class="st2" d="M390.31,251.67c2.45-0.46,4.97-0.17,7.45-0.15c-0.02,16.49-0.01,32.98,0,49.47
		c-3.34,0.01-6.68,0.01-10.01,0.01c0.02-14.85-0.03-29.69,0.01-44.53C387.62,254.52,388.52,252.55,390.31,251.67z"/>
	<path class="st2" d="M403.48,252.9c1.24-1.74,3.6-1.61,5.5-1.68c11,0.05,22.01,0.02,33.02,0.03c-0.01,3,0,6,0,9.01
		c-4.92-0.01-9.84-0.01-14.76,0.01c0.02,13.57,0.01,27.15,0.01,40.73c-3.34,0-6.68,0-10.01-0.01c0.01-13.57,0.01-27.15,0-40.73
		c-4.94-0.01-9.87,0-14.81-0.01C402.64,257.81,402.01,255.04,403.48,252.9z"/>
	<path class="st2" d="M446.59,251.27c4.22-0.03,8.44-0.03,12.66-0.02c3.36,6.93,6.46,13.99,9.95,20.86
		c2.61-5.21,5.23-10.41,7.68-15.69c0.99-1.87,1.91-4.25,4.15-4.89c3.38-0.56,6.84-0.24,10.25-0.26
		c-5.08,9.12-10.06,18.29-15.22,27.37c-0.99,1.81-2.2,3.67-2.06,5.84c-0.09,5.5,0.05,11.01,0,16.52c-3.34,0-6.67,0-10,0
		c-0.07-5.51,0.1-11.03-0.01-16.54c0.07-1.61-0.68-3.05-1.41-4.42C457.17,270.49,451.92,260.86,446.59,251.27z"/>
</g>
</svg>
